<mxfile host="app.diagrams.net" modified="2020-09-09T13:19:20.367Z" agent="5.0 (Windows NT 10.0; Win64; x64) AppleWebKit/537.36 (KHTML, like Gecko) Chrome/85.0.4183.83 Safari/537.36" etag="2YOZvPKggy3KJnuJB_h5" version="13.6.9" type="github">
  <diagram id="FIaRUXPig98ccB-cgBz1" name="Page-1">
    <mxGraphModel dx="1038" dy="580" grid="1" gridSize="10" guides="1" tooltips="1" connect="1" arrows="1" fold="1" page="1" pageScale="1" pageWidth="850" pageHeight="1400" math="0" shadow="0">
      <root>
        <mxCell id="0" />
        <mxCell id="1" parent="0" />
        <mxCell id="pIoSxr6iSQayTTjgHiG2-1" value="" style="rounded=1;whiteSpace=wrap;html=1;" vertex="1" parent="1">
          <mxGeometry x="100" y="240" width="120" height="60" as="geometry" />
        </mxCell>
        <mxCell id="pIoSxr6iSQayTTjgHiG2-2" value="" style="rounded=1;whiteSpace=wrap;html=1;" vertex="1" parent="1">
          <mxGeometry x="666" y="180" width="120" height="60" as="geometry" />
        </mxCell>
        <mxCell id="pIoSxr6iSQayTTjgHiG2-24" style="edgeStyle=orthogonalEdgeStyle;rounded=0;orthogonalLoop=1;jettySize=auto;html=1;exitX=0.5;exitY=1;exitDx=0;exitDy=0;" edge="1" parent="1" source="pIoSxr6iSQayTTjgHiG2-3" target="pIoSxr6iSQayTTjgHiG2-4">
          <mxGeometry relative="1" as="geometry" />
        </mxCell>
        <mxCell id="pIoSxr6iSQayTTjgHiG2-28" style="edgeStyle=orthogonalEdgeStyle;rounded=0;orthogonalLoop=1;jettySize=auto;html=1;exitX=1;exitY=0.5;exitDx=0;exitDy=0;entryX=0;entryY=0.5;entryDx=0;entryDy=0;" edge="1" parent="1" source="pIoSxr6iSQayTTjgHiG2-3" target="pIoSxr6iSQayTTjgHiG2-2">
          <mxGeometry relative="1" as="geometry" />
        </mxCell>
        <mxCell id="pIoSxr6iSQayTTjgHiG2-3" value="" style="rounded=1;whiteSpace=wrap;html=1;" vertex="1" parent="1">
          <mxGeometry x="380" y="180" width="120" height="60" as="geometry" />
        </mxCell>
        <mxCell id="pIoSxr6iSQayTTjgHiG2-23" style="edgeStyle=orthogonalEdgeStyle;rounded=0;orthogonalLoop=1;jettySize=auto;html=1;exitX=0;exitY=0.5;exitDx=0;exitDy=0;entryX=0.5;entryY=1;entryDx=0;entryDy=0;" edge="1" parent="1" source="pIoSxr6iSQayTTjgHiG2-4" target="pIoSxr6iSQayTTjgHiG2-17">
          <mxGeometry relative="1" as="geometry" />
        </mxCell>
        <mxCell id="pIoSxr6iSQayTTjgHiG2-29" style="edgeStyle=orthogonalEdgeStyle;rounded=0;orthogonalLoop=1;jettySize=auto;html=1;exitX=1;exitY=0.5;exitDx=0;exitDy=0;entryX=0;entryY=0.5;entryDx=0;entryDy=0;" edge="1" parent="1" source="pIoSxr6iSQayTTjgHiG2-4" target="pIoSxr6iSQayTTjgHiG2-6">
          <mxGeometry relative="1" as="geometry" />
        </mxCell>
        <mxCell id="pIoSxr6iSQayTTjgHiG2-4" value="" style="rounded=1;whiteSpace=wrap;html=1;" vertex="1" parent="1">
          <mxGeometry x="380" y="330" width="120" height="60" as="geometry" />
        </mxCell>
        <mxCell id="pIoSxr6iSQayTTjgHiG2-22" style="edgeStyle=orthogonalEdgeStyle;rounded=0;orthogonalLoop=1;jettySize=auto;html=1;exitX=1;exitY=0.5;exitDx=0;exitDy=0;entryX=0;entryY=0.5;entryDx=0;entryDy=0;" edge="1" parent="1" source="pIoSxr6iSQayTTjgHiG2-5" target="pIoSxr6iSQayTTjgHiG2-16">
          <mxGeometry relative="1" as="geometry" />
        </mxCell>
        <mxCell id="pIoSxr6iSQayTTjgHiG2-5" value="" style="rounded=1;whiteSpace=wrap;html=1;" vertex="1" parent="1">
          <mxGeometry x="80" y="40" width="120" height="60" as="geometry" />
        </mxCell>
        <mxCell id="pIoSxr6iSQayTTjgHiG2-6" value="" style="rounded=1;whiteSpace=wrap;html=1;" vertex="1" parent="1">
          <mxGeometry x="666" y="280" width="120" height="60" as="geometry" />
        </mxCell>
        <mxCell id="pIoSxr6iSQayTTjgHiG2-7" value="Le Boncoin&lt;br&gt;" style="text;html=1;strokeColor=none;fillColor=none;align=center;verticalAlign=middle;whiteSpace=wrap;rounded=0;" vertex="1" parent="1">
          <mxGeometry x="130" y="260" width="40" height="20" as="geometry" />
        </mxCell>
        <mxCell id="pIoSxr6iSQayTTjgHiG2-8" value="Livreur" style="text;html=1;strokeColor=none;fillColor=none;align=center;verticalAlign=middle;whiteSpace=wrap;rounded=0;" vertex="1" parent="1">
          <mxGeometry x="706" y="200" width="40" height="20" as="geometry" />
        </mxCell>
        <mxCell id="pIoSxr6iSQayTTjgHiG2-9" value="Annonceurs" style="text;html=1;strokeColor=none;fillColor=none;align=center;verticalAlign=middle;whiteSpace=wrap;rounded=0;" vertex="1" parent="1">
          <mxGeometry x="420" y="200" width="40" height="20" as="geometry" />
        </mxCell>
        <mxCell id="pIoSxr6iSQayTTjgHiG2-10" value="Acheteur" style="text;html=1;strokeColor=none;fillColor=none;align=center;verticalAlign=middle;whiteSpace=wrap;rounded=0;" vertex="1" parent="1">
          <mxGeometry x="420" y="350" width="40" height="20" as="geometry" />
        </mxCell>
        <mxCell id="pIoSxr6iSQayTTjgHiG2-11" value="ModÃ©rateur&lt;br&gt;" style="text;html=1;strokeColor=none;fillColor=none;align=center;verticalAlign=middle;whiteSpace=wrap;rounded=0;" vertex="1" parent="1">
          <mxGeometry x="120" y="60" width="40" height="20" as="geometry" />
        </mxCell>
        <mxCell id="pIoSxr6iSQayTTjgHiG2-12" value="Transport" style="text;html=1;strokeColor=none;fillColor=none;align=center;verticalAlign=middle;whiteSpace=wrap;rounded=0;" vertex="1" parent="1">
          <mxGeometry x="706" y="300" width="40" height="20" as="geometry" />
        </mxCell>
        <mxCell id="pIoSxr6iSQayTTjgHiG2-16" value="" style="rounded=1;whiteSpace=wrap;html=1;" vertex="1" parent="1">
          <mxGeometry x="230" y="40" width="120" height="60" as="geometry" />
        </mxCell>
        <mxCell id="pIoSxr6iSQayTTjgHiG2-15" value="Mantenance" style="text;html=1;strokeColor=none;fillColor=none;align=center;verticalAlign=middle;whiteSpace=wrap;rounded=0;" vertex="1" parent="1">
          <mxGeometry x="270" y="60" width="40" height="20" as="geometry" />
        </mxCell>
        <mxCell id="pIoSxr6iSQayTTjgHiG2-17" value="" style="rounded=1;whiteSpace=wrap;html=1;" vertex="1" parent="1">
          <mxGeometry x="230" y="130" width="120" height="60" as="geometry" />
        </mxCell>
        <mxCell id="pIoSxr6iSQayTTjgHiG2-18" value="Service client" style="text;html=1;strokeColor=none;fillColor=none;align=center;verticalAlign=middle;whiteSpace=wrap;rounded=0;" vertex="1" parent="1">
          <mxGeometry x="280" y="150" width="40" height="20" as="geometry" />
        </mxCell>
        <mxCell id="pIoSxr6iSQayTTjgHiG2-25" style="edgeStyle=orthogonalEdgeStyle;rounded=0;orthogonalLoop=1;jettySize=auto;html=1;exitX=0;exitY=0.5;exitDx=0;exitDy=0;entryX=0.41;entryY=1.063;entryDx=0;entryDy=0;entryPerimeter=0;" edge="1" parent="1" source="pIoSxr6iSQayTTjgHiG2-20" target="pIoSxr6iSQayTTjgHiG2-1">
          <mxGeometry relative="1" as="geometry" />
        </mxCell>
        <mxCell id="pIoSxr6iSQayTTjgHiG2-26" style="edgeStyle=orthogonalEdgeStyle;rounded=0;orthogonalLoop=1;jettySize=auto;html=1;exitX=0;exitY=0;exitDx=0;exitDy=0;entryX=0;entryY=0.75;entryDx=0;entryDy=0;" edge="1" parent="1" source="pIoSxr6iSQayTTjgHiG2-20" target="pIoSxr6iSQayTTjgHiG2-4">
          <mxGeometry relative="1" as="geometry" />
        </mxCell>
        <mxCell id="pIoSxr6iSQayTTjgHiG2-27" style="edgeStyle=orthogonalEdgeStyle;rounded=0;orthogonalLoop=1;jettySize=auto;html=1;exitX=0;exitY=0.25;exitDx=0;exitDy=0;entryX=0;entryY=0.75;entryDx=0;entryDy=0;" edge="1" parent="1" source="pIoSxr6iSQayTTjgHiG2-20" target="pIoSxr6iSQayTTjgHiG2-3">
          <mxGeometry relative="1" as="geometry" />
        </mxCell>
        <mxCell id="pIoSxr6iSQayTTjgHiG2-20" value="" style="rounded=1;whiteSpace=wrap;html=1;" vertex="1" parent="1">
          <mxGeometry x="365" y="430" width="120" height="60" as="geometry" />
        </mxCell>
        <mxCell id="pIoSxr6iSQayTTjgHiG2-14" value="Visiteur" style="text;html=1;strokeColor=none;fillColor=none;align=center;verticalAlign=middle;whiteSpace=wrap;rounded=0;" vertex="1" parent="1">
          <mxGeometry x="405" y="460" width="40" height="20" as="geometry" />
        </mxCell>
        <mxCell id="pIoSxr6iSQayTTjgHiG2-21" value="" style="endArrow=classic;html=1;exitX=0.5;exitY=0;exitDx=0;exitDy=0;" edge="1" parent="1" source="pIoSxr6iSQayTTjgHiG2-1">
          <mxGeometry width="50" height="50" relative="1" as="geometry">
            <mxPoint x="320" y="270" as="sourcePoint" />
            <mxPoint x="120" y="110" as="targetPoint" />
            <Array as="points">
              <mxPoint x="120" y="110" />
            </Array>
          </mxGeometry>
        </mxCell>
      </root>
    </mxGraphModel>
  </diagram>
</mxfile>
